<svg xmlns="http://www.w3.org/2000/svg" xmlns:xlink="http://www.w3.org/1999/xlink" width="191" zoomAndPan="magnify" viewBox="0 0 143.25 125.999998" height="168" preserveAspectRatio="xMidYMid meet" version="1.2"><defs><clipPath id="28b64c6003"><path d="M 9 24 L 109 24 L 109 125 L 9 125 Z M 9 24 "/></clipPath><clipPath id="0faacbcdd1"><path d="M 142.015625 75.507812 L 106.835938 125.5625 L 0.015625 50.480469 L 35.195312 0.429688 Z M 142.015625 75.507812 "/></clipPath><clipPath id="281b130d44"><path d="M 142.015625 75.507812 L 106.835938 125.5625 L 0.015625 50.480469 L 35.195312 0.429688 Z M 142.015625 75.507812 "/></clipPath></defs><g id="7172500476"><g clip-rule="nonzero" clip-path="url(#28b64c6003)"><g clip-rule="nonzero" clip-path="url(#0faacbcdd1)"><g clip-rule="nonzero" clip-path="url(#281b130d44)"><path style=" stroke:none;fill-rule:evenodd;fill:#7c9fad;fill-opacity:1;" d="M 9.300781 36.988281 C 9.300781 36.988281 66.65625 27.328125 84.273438 84 C 84.273438 84 68.582031 48.433594 33.863281 40.785156 C 33.863281 40.785156 46.207031 44.078125 47.847656 57.496094 C 49.488281 70.914062 50.164062 84.855469 64.898438 95.8125 C 64.898438 95.8125 58.300781 85.191406 60.808594 74.386719 C 60.808594 74.386719 60.5 89.726562 71.292969 98.210938 C 82.082031 106.695312 104.078125 109.890625 107.378906 124.773438 C 107.378906 124.773438 113.582031 79.765625 92.136719 62.597656 C 92.136719 62.597656 103.492188 68.789062 106.085938 78.085938 C 106.085938 78.085938 109.738281 56.714844 71.746094 41.382812 C 71.746094 41.382812 82.035156 41.433594 87.675781 44.050781 C 87.675781 44.050781 67.511719 23.144531 37.792969 33.078125 C 37.792969 33.078125 42.164062 29.941406 42.230469 24.527344 C 42.230469 24.527344 39.414062 32.796875 31.570312 33.417969 C 23.722656 34.035156 14.972656 32.746094 9.300781 36.988281 "/><path style=" stroke:none;fill-rule:evenodd;fill:#7c9fad;fill-opacity:1;" d="M 9.300781 36.988281 C 9.300781 36.988281 66.65625 27.328125 84.273438 84 C 84.273438 84 68.582031 48.433594 33.863281 40.785156 C 33.863281 40.785156 46.207031 44.078125 47.847656 57.496094 C 49.488281 70.914062 50.164062 84.855469 64.898438 95.8125 C 64.898438 95.8125 58.300781 85.191406 60.808594 74.386719 C 60.808594 74.386719 60.5 89.726562 71.292969 98.210938 C 82.082031 106.695312 104.078125 109.890625 107.378906 124.773438 C 107.378906 124.773438 113.582031 79.765625 92.136719 62.597656 C 92.136719 62.597656 103.492188 68.789062 106.085938 78.085938 C 106.085938 78.085938 109.738281 56.714844 71.746094 41.382812 C 71.746094 41.382812 82.035156 41.433594 87.675781 44.050781 C 87.675781 44.050781 67.511719 23.144531 37.792969 33.078125 C 37.792969 33.078125 42.164062 29.941406 42.230469 24.527344 C 42.230469 24.527344 39.414062 32.796875 31.570312 33.417969 C 23.722656 34.035156 14.972656 32.746094 9.300781 36.988281 "/></g></g></g></g></svg>