<svg xmlns="http://www.w3.org/2000/svg" xmlns:xlink="http://www.w3.org/1999/xlink" width="187" zoomAndPan="magnify" viewBox="0 0 140.25 159.749995" height="213" preserveAspectRatio="xMidYMid meet" version="1.2"><defs><clipPath id="e16e287a1b"><path d="M 46 0.300781 L 111 0.300781 L 111 154 L 46 154 Z M 46 0.300781 "/></clipPath><clipPath id="566b6f2d59"><path d="M 139.363281 35.332031 L 92.722656 158.863281 L -0.101562 123.816406 L 46.539062 0.285156 Z M 139.363281 35.332031 "/></clipPath><clipPath id="fcb8af854f"><path d="M 139.363281 35.332031 L 92.722656 158.863281 L -0.101562 123.816406 L 46.539062 0.285156 Z M 139.363281 35.332031 "/></clipPath><clipPath id="fc558582a6"><path d="M 139.34375 35.324219 L 92.75 158.734375 L 0.0195312 123.722656 L 46.613281 0.3125 Z M 139.34375 35.324219 "/></clipPath></defs><g id="a697af0bbe"><g clip-rule="nonzero" clip-path="url(#e16e287a1b)"><g clip-rule="nonzero" clip-path="url(#566b6f2d59)"><g clip-rule="nonzero" clip-path="url(#fcb8af854f)"><g clip-rule="nonzero" clip-path="url(#fc558582a6)"><path style=" stroke:none;fill-rule:nonzero;fill:#1a1f2b;fill-opacity:1;" d="M 77.707031 153.054688 C 77.707031 153.054688 79.460938 152.042969 82.105469 150.03125 C 84.746094 148.019531 88.273438 145.003906 91.792969 140.921875 C 95.332031 136.835938 98.679688 131.738281 101.171875 125.511719 C 102.347656 122.421875 103.285156 119.066406 103.871094 115.441406 C 104.429688 111.832031 104.546875 107.996094 104.242188 103.902344 C 104.242188 103.902344 105.433594 106.890625 106.625 109.878906 C 107.847656 112.855469 108.925781 115.886719 108.925781 115.886719 C 108.925781 115.886719 109.203125 114.089844 109.378906 111.105469 C 109.511719 108.140625 109.652344 103.925781 109.273438 99.160156 C 108.613281 89.613281 105.902344 77.679688 99.550781 69.039062 C 99.550781 69.039062 100.289062 69.957031 101.398438 71.332031 C 102.472656 72.734375 103.90625 74.601562 105.34375 76.46875 C 106.777344 78.339844 108.21875 80.222656 109.238281 81.667969 C 110.28125 83.105469 110.976562 84.0625 110.976562 84.0625 C 110.976562 84.0625 110.925781 83.417969 110.78125 82.246094 C 110.617188 81.078125 110.410156 79.351562 109.9375 77.261719 C 109.484375 75.167969 108.859375 72.660156 108.015625 69.859375 C 107.167969 67.0625 105.992188 64.027344 104.59375 60.800781 C 103.199219 57.578125 101.375 54.277344 99.3125 50.914062 C 97.195312 47.585938 94.707031 44.269531 91.859375 41.097656 C 88.925781 37.984375 85.757812 34.933594 82.019531 32.320312 C 80.171875 31 78.234375 29.753906 76.203125 28.601562 C 74.152344 27.46875 71.980469 26.449219 69.734375 25.535156 C 68.914062 24.238281 63.363281 17.6875 57.757812 11.730469 C 56.359375 10.246094 54.972656 8.773438 53.683594 7.40625 C 52.359375 6.070312 51.132812 4.839844 50.085938 3.785156 C 47.988281 1.6875 46.613281 0.3125 46.613281 0.3125 C 46.613281 0.3125 47.972656 1.996094 50.039062 4.558594 C 51.0625 5.847656 52.300781 7.320312 53.558594 8.972656 C 54.816406 10.621094 56.167969 12.394531 57.535156 14.179688 C 58.917969 15.953125 60.222656 17.808594 61.492188 19.558594 C 62.75 21.3125 63.945312 22.976562 65.003906 24.453125 C 67.039062 27.457031 68.539062 29.671875 68.929688 30.25 C 70.765625 33.003906 72.421875 36.054688 74.15625 39.132812 C 75.886719 42.222656 77.453125 45.503906 79.101562 48.777344 C 80.695312 52.066406 82.226562 55.476562 83.738281 58.847656 C 85.164062 62.269531 86.5625 65.675781 87.808594 69.058594 C 88.394531 70.761719 89.007812 72.445312 89.539062 74.109375 C 89.8125 74.9375 90.085938 75.765625 90.355469 76.585938 C 90.617188 77.398438 90.847656 78.222656 91.078125 79.035156 C 91.992188 82.296875 92.796875 85.410156 93.402344 88.378906 C 93.714844 89.867188 93.929688 91.304688 94.183594 92.695312 C 94.421875 94.082031 94.578125 95.410156 94.769531 96.683594 C 95.046875 99.238281 95.222656 101.574219 95.28125 103.597656 C 95.390625 105.640625 95.355469 107.347656 95.3125 108.796875 C 95.261719 110.230469 95.144531 111.320312 95.097656 112.078125 C 95.042969 112.828125 95.011719 113.226562 95.011719 113.226562 C 95.011719 113.226562 95.023438 112.820312 95.046875 112.058594 C 95.058594 111.289062 95.128906 110.183594 95.121094 108.730469 C 95.101562 107.265625 95.050781 105.542969 94.859375 103.488281 C 94.710938 101.457031 94.449219 99.105469 94.050781 96.5625 C 93.8125 95.289062 93.601562 93.964844 93.308594 92.582031 C 93 91.199219 92.730469 89.769531 92.359375 88.292969 C 91.613281 85.355469 90.710938 82.265625 89.675781 79.046875 C 89.425781 78.238281 89.132812 77.441406 88.851562 76.632812 C 88.554688 75.824219 88.253906 75.011719 87.949219 74.191406 C 87.359375 72.550781 86.6875 70.894531 86.046875 69.21875 C 84.640625 65.910156 83.175781 62.535156 81.59375 59.195312 C 79.957031 55.886719 78.351562 52.535156 76.59375 49.308594 C 74.839844 46.097656 73.167969 42.882812 71.335938 39.90625 C 69.535156 36.914062 67.777344 34.007812 65.90625 31.390625 C 64.535156 29.4375 63.203125 27.566406 61.878906 25.84375 C 61.046875 27.707031 59.933594 30.5625 59.015625 34.175781 C 58.097656 37.789062 57.371094 42.164062 57.144531 47.1875 C 56.773438 57.226562 58.652344 69.496094 65.789062 83.910156 C 65.789062 83.910156 65.847656 83.226562 65.933594 82.195312 C 66.027344 81.160156 66.132812 79.785156 66.207031 78.417969 C 66.363281 75.65625 66.523438 72.898438 66.523438 72.898438 C 66.527344 74.402344 66.636719 76.519531 67.027344 79.191406 C 67.386719 81.878906 67.964844 85.15625 69.015625 88.9375 C 70.964844 96.589844 74.542969 106.339844 80.484375 118.621094 C 80.484375 118.621094 81.308594 115.695312 82.070312 112.734375 C 82.792969 109.769531 83.515625 106.800781 83.515625 106.800781 C 83.515625 106.800781 84.289062 108.507812 85.207031 111.378906 C 86.054688 114.277344 87.074219 118.335938 87.449219 123.019531 C 88.300781 132.363281 86.410156 144.167969 77.707031 153.054688 "/><path style=" stroke:none;fill-rule:nonzero;fill:#1a1f2b;fill-opacity:1;" d="M 77.707031 153.054688 C 77.707031 153.054688 79.460938 152.042969 82.105469 150.03125 C 84.746094 148.019531 88.273438 145.003906 91.792969 140.921875 C 95.332031 136.835938 98.679688 131.738281 101.171875 125.511719 C 102.347656 122.421875 103.285156 119.066406 103.871094 115.441406 C 104.429688 111.832031 104.546875 107.996094 104.242188 103.902344 C 104.242188 103.902344 105.433594 106.890625 106.625 109.878906 C 107.847656 112.855469 108.925781 115.886719 108.925781 115.886719 C 108.925781 115.886719 109.203125 114.089844 109.378906 111.105469 C 109.511719 108.140625 109.652344 103.925781 109.273438 99.160156 C 108.613281 89.613281 105.902344 77.679688 99.550781 69.039062 C 99.550781 69.039062 100.289062 69.957031 101.398438 71.332031 C 102.472656 72.734375 103.90625 74.601562 105.34375 76.46875 C 106.777344 78.339844 108.21875 80.222656 109.238281 81.667969 C 110.28125 83.105469 110.976562 84.0625 110.976562 84.0625 C 110.976562 84.0625 110.925781 83.417969 110.78125 82.246094 C 110.617188 81.078125 110.410156 79.351562 109.9375 77.261719 C 109.484375 75.167969 108.859375 72.660156 108.015625 69.859375 C 107.167969 67.0625 105.992188 64.027344 104.59375 60.800781 C 103.199219 57.578125 101.375 54.277344 99.3125 50.914062 C 97.195312 47.585938 94.707031 44.269531 91.859375 41.097656 C 88.925781 37.984375 85.757812 34.933594 82.019531 32.320312 C 80.171875 31 78.234375 29.753906 76.203125 28.601562 C 74.152344 27.46875 71.980469 26.449219 69.734375 25.535156 C 68.914062 24.238281 63.363281 17.6875 57.757812 11.730469 C 56.359375 10.246094 54.972656 8.773438 53.683594 7.40625 C 52.359375 6.070312 51.132812 4.839844 50.085938 3.785156 C 47.988281 1.6875 46.613281 0.3125 46.613281 0.3125 C 46.613281 0.3125 47.972656 1.996094 50.039062 4.558594 C 51.0625 5.847656 52.300781 7.320312 53.558594 8.972656 C 54.816406 10.621094 56.167969 12.394531 57.535156 14.179688 C 58.917969 15.953125 60.222656 17.808594 61.492188 19.558594 C 62.75 21.3125 63.945312 22.976562 65.003906 24.453125 C 67.039062 27.457031 68.539062 29.671875 68.929688 30.25 C 70.765625 33.003906 72.421875 36.054688 74.15625 39.132812 C 75.886719 42.222656 77.453125 45.503906 79.101562 48.777344 C 80.695312 52.066406 82.226562 55.476562 83.738281 58.847656 C 85.164062 62.269531 86.5625 65.675781 87.808594 69.058594 C 88.394531 70.761719 89.007812 72.445312 89.539062 74.109375 C 89.8125 74.9375 90.085938 75.765625 90.355469 76.585938 C 90.617188 77.398438 90.847656 78.222656 91.078125 79.035156 C 91.992188 82.296875 92.796875 85.410156 93.402344 88.378906 C 93.714844 89.867188 93.929688 91.304688 94.183594 92.695312 C 94.421875 94.082031 94.578125 95.410156 94.769531 96.683594 C 95.046875 99.238281 95.222656 101.574219 95.28125 103.597656 C 95.390625 105.640625 95.355469 107.347656 95.3125 108.796875 C 95.261719 110.230469 95.144531 111.320312 95.097656 112.078125 C 95.042969 112.828125 95.011719 113.226562 95.011719 113.226562 C 95.011719 113.226562 95.023438 112.820312 95.046875 112.058594 C 95.058594 111.289062 95.128906 110.183594 95.121094 108.730469 C 95.101562 107.265625 95.050781 105.542969 94.859375 103.488281 C 94.710938 101.457031 94.449219 99.105469 94.050781 96.5625 C 93.8125 95.289062 93.601562 93.964844 93.308594 92.582031 C 93 91.199219 92.730469 89.769531 92.359375 88.292969 C 91.613281 85.355469 90.710938 82.265625 89.675781 79.046875 C 89.425781 78.238281 89.132812 77.441406 88.851562 76.632812 C 88.554688 75.824219 88.253906 75.011719 87.949219 74.191406 C 87.359375 72.550781 86.6875 70.894531 86.046875 69.21875 C 84.640625 65.910156 83.175781 62.535156 81.59375 59.195312 C 79.957031 55.886719 78.351562 52.535156 76.59375 49.308594 C 74.839844 46.097656 73.167969 42.882812 71.335938 39.90625 C 69.535156 36.914062 67.777344 34.007812 65.90625 31.390625 C 64.535156 29.4375 63.203125 27.566406 61.878906 25.84375 C 61.046875 27.707031 59.933594 30.5625 59.015625 34.175781 C 58.097656 37.789062 57.371094 42.164062 57.144531 47.1875 C 56.773438 57.226562 58.652344 69.496094 65.789062 83.910156 C 65.789062 83.910156 65.847656 83.226562 65.933594 82.195312 C 66.027344 81.160156 66.132812 79.785156 66.207031 78.417969 C 66.363281 75.65625 66.523438 72.898438 66.523438 72.898438 C 66.527344 74.402344 66.636719 76.519531 67.027344 79.191406 C 67.386719 81.878906 67.964844 85.15625 69.015625 88.9375 C 70.964844 96.589844 74.542969 106.339844 80.484375 118.621094 C 80.484375 118.621094 81.308594 115.695312 82.070312 112.734375 C 82.792969 109.769531 83.515625 106.800781 83.515625 106.800781 C 83.515625 106.800781 84.289062 108.507812 85.207031 111.378906 C 86.054688 114.277344 87.074219 118.335938 87.449219 123.019531 C 88.300781 132.363281 86.410156 144.167969 77.707031 153.054688 "/></g></g></g></g></g></svg>