<svg xmlns="http://www.w3.org/2000/svg" xmlns:xlink="http://www.w3.org/1999/xlink" width="369" zoomAndPan="magnify" viewBox="0 0 276.75 276.749989" height="369" preserveAspectRatio="xMidYMid meet" version="1.2"><defs><clipPath id="194f156a48"><path d="M 7.453125 7.453125 L 268.96875 7.453125 L 268.96875 268.96875 L 7.453125 268.96875 Z M 7.453125 7.453125 "/></clipPath></defs><g id="a61d998ed0"><g clip-rule="nonzero" clip-path="url(#194f156a48)"><path style=" stroke:none;fill-rule:nonzero;fill:#ffffff;fill-opacity:1;" d="M 230.578125 45.734375 C 205.894531 21.050781 173.070312 7.453125 138.15625 7.453125 C 103.242188 7.453125 70.421875 21.050781 45.734375 45.734375 C 21.050781 70.421875 7.453125 103.246094 7.453125 138.15625 C 7.453125 173.070312 21.050781 205.894531 45.734375 230.578125 C 70.421875 255.265625 103.242188 268.863281 138.15625 268.863281 C 173.070312 268.863281 205.894531 255.265625 230.578125 230.578125 C 255.265625 205.894531 268.863281 173.070312 268.863281 138.15625 C 268.863281 103.242188 255.265625 70.421875 230.578125 45.734375 Z M 230.578125 45.734375 "/></g><path style=" stroke:none;fill-rule:nonzero;fill:#7c9fad;fill-opacity:1;" d="M 169.371094 76.078125 C 170.394531 77.101562 171.363281 78.167969 172.28125 79.289062 C 173.199219 80.40625 174.058594 81.566406 174.863281 82.765625 C 175.664062 83.96875 176.40625 85.207031 177.089844 86.484375 C 177.769531 87.757812 178.386719 89.0625 178.941406 90.398438 C 179.496094 91.734375 179.980469 93.09375 180.402344 94.476562 C 180.820312 95.859375 181.171875 97.261719 181.453125 98.679688 C 181.734375 100.097656 181.949219 101.527344 182.089844 102.964844 C 182.230469 104.402344 182.300781 105.847656 182.300781 107.292969 C 182.300781 108.738281 182.230469 110.179688 182.089844 111.617188 C 181.949219 113.058594 181.734375 114.484375 181.453125 115.902344 C 181.171875 117.320312 180.820312 118.722656 180.402344 120.105469 C 179.980469 121.488281 179.496094 122.847656 178.941406 124.183594 C 178.386719 125.519531 177.769531 126.824219 177.089844 128.101562 C 176.40625 129.375 175.664062 130.613281 174.863281 131.816406 C 174.058594 133.019531 173.199219 134.179688 172.28125 135.296875 C 171.363281 136.414062 170.394531 137.484375 169.371094 138.503906 C 168.351562 139.527344 167.28125 140.496094 166.164062 141.414062 C 165.046875 142.332031 163.886719 143.191406 162.683594 143.996094 C 161.480469 144.800781 160.242188 145.542969 158.96875 146.222656 C 157.691406 146.902344 156.386719 147.523438 155.050781 148.074219 C 153.714844 148.628906 152.355469 149.113281 150.972656 149.535156 C 149.589844 149.953125 148.1875 150.304688 146.769531 150.585938 C 145.351562 150.867188 143.925781 151.082031 142.484375 151.222656 C 141.046875 151.363281 139.605469 151.433594 138.160156 151.433594 C 136.710938 151.433594 135.269531 151.363281 133.832031 151.222656 C 132.394531 151.082031 130.964844 150.867188 129.546875 150.585938 C 128.128906 150.304688 126.726562 149.953125 125.34375 149.535156 C 123.960938 149.113281 122.601562 148.628906 121.265625 148.074219 C 119.929688 147.523438 118.625 146.902344 117.347656 146.222656 C 116.074219 145.542969 114.835938 144.800781 113.632812 143.996094 C 112.433594 143.191406 111.273438 142.332031 110.152344 141.414062 C 109.035156 140.496094 107.964844 139.527344 106.945312 138.503906 C 105.921875 137.484375 104.953125 136.414062 104.035156 135.296875 C 103.117188 134.179688 102.257812 133.019531 101.453125 131.816406 C 100.652344 130.613281 99.910156 129.375 99.226562 128.101562 C 98.546875 126.824219 97.929688 125.519531 97.375 124.183594 C 96.820312 122.847656 96.335938 121.488281 95.914062 120.105469 C 95.496094 118.722656 95.144531 117.320312 94.863281 115.902344 C 94.582031 114.484375 94.371094 113.058594 94.226562 111.617188 C 94.085938 110.179688 94.015625 108.738281 94.015625 107.292969 C 94.015625 105.847656 94.085938 104.402344 94.226562 102.964844 C 94.371094 101.527344 94.582031 100.097656 94.863281 98.679688 C 95.144531 97.261719 95.496094 95.859375 95.914062 94.476562 C 96.335938 93.09375 96.820312 91.734375 97.375 90.398438 C 97.929688 89.0625 98.546875 87.757812 99.226562 86.484375 C 99.910156 85.207031 100.652344 83.96875 101.453125 82.765625 C 102.257812 81.566406 103.117188 80.40625 104.035156 79.289062 C 104.953125 78.167969 105.921875 77.101562 106.945312 76.078125 C 107.964844 75.054688 109.035156 74.085938 110.152344 73.167969 C 111.273438 72.25 112.433594 71.390625 113.632812 70.585938 C 114.835938 69.785156 116.074219 69.042969 117.347656 68.359375 C 118.625 67.679688 119.929688 67.0625 121.265625 66.507812 C 122.601562 65.957031 123.960938 65.46875 125.34375 65.050781 C 126.726562 64.628906 128.128906 64.277344 129.546875 63.996094 C 130.964844 63.714844 132.394531 63.503906 133.832031 63.359375 C 135.269531 63.21875 136.710938 63.148438 138.160156 63.148438 C 139.605469 63.148438 141.046875 63.21875 142.484375 63.359375 C 143.925781 63.503906 145.351562 63.714844 146.769531 63.996094 C 148.1875 64.277344 149.589844 64.628906 150.972656 65.050781 C 152.355469 65.46875 153.714844 65.957031 155.050781 66.507812 C 156.386719 67.0625 157.691406 67.679688 158.96875 68.359375 C 160.242188 69.042969 161.480469 69.785156 162.683594 70.585938 C 163.886719 71.390625 165.046875 72.25 166.164062 73.167969 C 167.28125 74.085938 168.351562 75.054688 169.371094 76.078125 Z M 169.371094 76.078125 "/><path style=" stroke:none;fill-rule:nonzero;fill:#7c9fad;fill-opacity:1;" d="M 139.433594 171.050781 L 136.882812 171.050781 C 100.816406 171.050781 70.441406 195.402344 61.285156 228.5625 C 82.015625 246.214844 108.863281 256.886719 138.15625 256.886719 C 167.453125 256.886719 194.300781 246.214844 215.027344 228.5625 C 205.875 195.40625 175.503906 171.050781 139.433594 171.050781 Z M 139.433594 171.050781 "/></g></svg>