<svg xmlns="http://www.w3.org/2000/svg" xmlns:xlink="http://www.w3.org/1999/xlink" width="218" zoomAndPan="magnify" viewBox="0 0 163.5 153.749995" height="205" preserveAspectRatio="xMidYMid meet" version="1.2"><defs><clipPath id="3b4da5a303"><path d="M 46 9 L 134 9 L 134 123 L 46 123 Z M 46 9 "/></clipPath><clipPath id="865020763b"><path d="M 162.785156 80.523438 L 109.210938 153.429688 L -0.449219 72.84375 L 53.125 -0.0625 Z M 162.785156 80.523438 "/></clipPath><clipPath id="f1aa297eac"><path d="M 162.785156 80.523438 L 109.210938 153.429688 L -0.449219 72.84375 L 53.125 -0.0625 Z M 162.785156 80.523438 "/></clipPath></defs><g id="70acd3c406"><g clip-rule="nonzero" clip-path="url(#3b4da5a303)"><g clip-rule="nonzero" clip-path="url(#865020763b)"><g clip-rule="nonzero" clip-path="url(#f1aa297eac)"><path style=" stroke:none;fill-rule:evenodd;fill:#ffffff;fill-opacity:1;" d="M 70.785156 29.851562 C 70.785156 29.851562 83.195312 37.53125 84.929688 46.917969 C 86.664062 56.308594 89.386719 80.019531 99.214844 89.078125 C 99.214844 89.078125 90.09375 87.605469 86.582031 82.414062 C 86.582031 82.414062 88.941406 90.949219 97.304688 96.308594 C 97.304688 96.308594 111.035156 116.078125 133.175781 120.839844 C 133.175781 120.839844 82.609375 133.394531 64.308594 90.640625 C 64.308594 90.640625 63.191406 101.066406 67.445312 109.167969 C 67.445312 109.167969 49.691406 87.75 54.132812 58.566406 C 54.132812 58.566406 50.347656 66.382812 50.035156 73.21875 C 50.035156 73.21875 46.210938 55.101562 55.46875 35.738281 C 64.726562 16.375 46.480469 9.511719 46.480469 9.511719 C 46.480469 9.511719 64.734375 8.53125 65.609375 29.058594 C 66.480469 49.589844 63.054688 78.46875 77.207031 94.101562 C 77.207031 94.101562 68.46875 80.355469 69.15625 60.191406 C 69.851562 40.023438 70.785156 29.851562 70.785156 29.851562 "/><path style=" stroke:none;fill-rule:evenodd;fill:#ffffff;fill-opacity:1;" d="M 70.785156 29.851562 C 70.785156 29.851562 83.195312 37.53125 84.929688 46.917969 C 86.664062 56.308594 89.386719 80.019531 99.214844 89.078125 C 99.214844 89.078125 90.09375 87.605469 86.582031 82.414062 C 86.582031 82.414062 88.941406 90.949219 97.304688 96.308594 C 97.304688 96.308594 111.035156 116.078125 133.175781 120.839844 C 133.175781 120.839844 82.609375 133.394531 64.308594 90.640625 C 64.308594 90.640625 63.191406 101.066406 67.445312 109.167969 C 67.445312 109.167969 49.691406 87.75 54.132812 58.566406 C 54.132812 58.566406 50.347656 66.382812 50.035156 73.21875 C 50.035156 73.21875 46.210938 55.101562 55.46875 35.738281 C 64.726562 16.375 46.480469 9.511719 46.480469 9.511719 C 46.480469 9.511719 64.734375 8.53125 65.609375 29.058594 C 66.480469 49.589844 63.054688 78.46875 77.207031 94.101562 C 77.207031 94.101562 68.46875 80.355469 69.15625 60.191406 C 69.851562 40.023438 70.785156 29.851562 70.785156 29.851562 "/></g></g></g></g></svg>